<?xml version="1.0" standalone="no"?>
<!DOCTYPE svg PUBLIC "-//W3C//DTD SVG 20010904//EN"
 "http://www.w3.org/TR/2001/REC-SVG-20010904/DTD/svg10.dtd">
<svg version="1.0" xmlns="http://www.w3.org/2000/svg"
 width="400.000000pt" height="400.000000pt" viewBox="0 0 400.000000 400.000000"
 preserveAspectRatio="xMidYMid meet">

<g transform="translate(0.000000,400.000000) scale(0.100000,-0.100000)"
fill="#000000" stroke="none">
<path d="M1800 3421 c-502 -73 -939 -415 -1129 -887 -22 -54 -44 -118 -49
-142 l-10 -42 175 2 174 3 41 90 c48 107 118 211 205 305 62 67 140 130 176
143 31 11 19 -24 -22 -62 -25 -22 -42 -49 -46 -71 -7 -36 -50 -90 -71 -90 -14
0 -49 -46 -83 -109 -21 -38 -24 -59 -26 -160 -2 -121 2 -138 42 -180 13 -14
33 -40 44 -57 10 -18 44 -49 73 -69 49 -34 59 -37 99 -31 24 4 53 3 65 -1 23
-9 19 -21 -125 -366 -18 -43 -10 -57 34 -57 44 0 72 21 88 69 30 91 29 91 171
91 l125 0 34 -74 c34 -76 47 -86 107 -86 30 0 30 -3 0 -83 -29 -77 -28 -100
11 -171 19 -34 37 -84 41 -113 4 -32 24 -86 51 -138 25 -47 45 -96 45 -109 0
-13 6 -26 14 -29 13 -5 113 6 173 18 47 11 163 147 163 193 0 14 15 37 37 57
36 33 37 36 27 73 -14 53 -4 74 58 120 72 53 77 60 80 121 3 46 0 54 -15 57
-23 3 -18 -5 -51 82 l-28 72 -128 0 -127 0 -29 -75 -29 -75 -74 0 c-62 0 -72
2 -59 12 20 16 121 256 114 273 -2 7 -1 16 4 21 8 8 104 234 167 392 14 35 30
61 35 60 5 -2 60 -124 121 -272 106 -257 112 -267 127 -246 8 12 53 61 100
109 79 79 123 146 132 196 3 17 -2 20 -32 19 -19 -1 -53 -5 -76 -9 -38 -7 -42
-5 -65 25 -13 18 -45 54 -70 79 -45 45 -109 145 -109 171 0 8 -25 62 -55 121
-52 102 -65 139 -47 139 4 0 13 -5 20 -12 18 -18 24 -4 8 17 -11 16 -28 20
-97 21 -56 1 -105 9 -147 23 -65 22 -102 17 -102 -14 0 -38 -71 -31 -140 15
-14 10 -38 20 -55 24 -59 14 -74 31 -68 75 4 31 2 42 -10 46 -29 12 -226 -13
-270 -33 -48 -23 -122 -18 -122 8 0 33 187 126 312 155 106 25 161 30 293 29
279 -3 550 -117 739 -313 87 -91 164 -202 217 -315 l49 -106 182 0 182 0 -15
53 c-75 253 -195 450 -391 637 -111 107 -201 171 -334 236 -220 110 -363 145
-614 149 -99 2 -205 0 -235 -4z m228 -96 c-2 -5 -9 -10 -17 -10 -26 0 -23 -25
8 -61 34 -38 36 -46 21 -75 -11 -20 -64 -27 -75 -9 -11 17 5 32 20 20 8 -7 19
-9 25 -5 19 11 10 41 -20 70 -32 31 -38 53 -18 73 15 15 60 12 56 -3z m150 5
c12 0 22 -4 22 -10 0 -5 -11 -10 -24 -10 -23 0 -24 -4 -31 -80 -5 -53 -11 -80
-18 -77 -12 4 -12 46 -1 119 5 34 3 38 -20 44 -41 10 -31 27 12 20 20 -3 47
-6 60 -6z m-354 -22 c12 -56 25 -152 22 -155 -2 -2 -26 17 -54 42 -27 25 -53
45 -57 45 -3 0 -3 -25 0 -55 5 -37 4 -55 -3 -55 -11 0 -15 15 -31 122 -9 65
-12 65 62 1 20 -18 41 -33 46 -33 4 0 5 19 0 43 -11 56 -11 67 1 67 5 0 12
-10 14 -22z m442 -20 c-18 -86 -18 -114 -3 -127 31 -25 55 -4 67 57 15 77 19
87 30 76 11 -11 -12 -128 -30 -149 -21 -26 -82 -16 -97 15 -11 24 -10 39 12
138 9 36 28 27 21 -10z m-576 -165 c0 -17 -10 -16 -31 2 -24 23 -69 10 -69
-20 0 -13 -7 -26 -16 -29 -16 -6 -16 8 2 152 l5 43 54 -68 c30 -37 54 -74 55
-80z m816 92 c20 -31 12 -82 -18 -114 -17 -19 -28 -22 -65 -18 -24 2 -46 7
-50 10 -5 6 31 126 49 160 8 16 11 16 38 2 17 -9 37 -27 46 -40z m-1038 -13
c2 -7 -3 -12 -11 -12 -21 0 -46 -26 -53 -56 -5 -18 0 -32 17 -50 28 -29 48
-30 83 -3 l26 20 0 -20 c0 -13 -11 -26 -30 -36 -89 -46 -163 74 -90 147 30 29
50 33 58 10z m1202 -59 c0 -11 -6 -10 -30 2 -37 19 -46 19 -55 -2 -4 -12 2
-24 20 -39 27 -21 22 -41 -5 -23 -24 15 -40 10 -49 -13 -7 -19 -3 -26 27 -44
20 -12 30 -24 24 -28 -8 -5 -40 9 -90 39 -1 1 15 38 35 82 l38 80 42 -20 c24
-12 43 -27 43 -34z m-1317 -79 c34 -68 42 -104 18 -78 -18 19 -79 142 -74 148
13 12 20 4 56 -70z m1397 -94 c4 0 19 18 34 40 15 23 31 38 37 35 5 -4 6 -12
2 -18 -3 -7 -25 -41 -47 -77 l-41 -65 -11 73 c-6 39 -13 74 -16 77 -3 3 -17
-13 -32 -35 -14 -22 -31 -40 -36 -40 -15 0 -14 3 38 87 l47 78 9 -77 c5 -43
12 -78 16 -78z m-1490 88 c14 -15 20 -32 17 -50 -3 -24 1 -29 31 -39 45 -15
22 -30 -24 -16 -42 13 -48 7 -33 -27 13 -28 3 -50 -12 -26 -4 8 -27 43 -49 77
l-39 61 32 21 c41 26 51 26 77 -1z m-130 -65 c0 -4 -12 -20 -27 -35 -25 -26
-26 -29 -10 -45 16 -16 18 -15 41 6 13 12 27 18 30 13 3 -5 -3 -17 -14 -27
-25 -23 -25 -33 2 -62 14 -15 18 -27 12 -33 -7 -7 -28 12 -63 56 l-53 66 33
34 c31 32 49 42 49 27z m1824 -85 c-3 -5 -15 -1 -26 8 -12 12 -22 14 -26 8
-21 -32 -86 -104 -93 -104 -18 0 -8 19 37 75 43 52 45 57 30 74 -9 10 -13 21
-9 25 9 9 94 -75 87 -86z m57 -48 c10 -6 19 -20 19 -30 0 -23 -15 -27 -24 -5
-11 29 -24 14 -30 -37 -8 -59 -20 -78 -47 -78 -19 0 -49 35 -49 57 0 21 21 15
27 -7 3 -11 14 -20 24 -20 16 0 19 8 19 43 0 23 7 53 16 65 17 25 19 26 45 12z
m-1965 -49 c43 -16 77 -33 74 -37 -3 -5 -12 -8 -21 -7 -9 1 -26 -8 -38 -21
-18 -19 -21 -28 -12 -44 10 -19 6 -32 -10 -32 -4 0 -12 12 -17 28 -6 15 -22
53 -36 85 -14 31 -24 57 -23 57 2 0 39 -13 83 -29z m814 -475 c0 -2 -8 -10
-17 -17 -16 -13 -17 -12 -4 4 13 16 21 21 21 13z m-192 -318 c53 -129 56 -118
-42 -118 -47 0 -86 2 -86 5 0 11 43 131 57 158 22 43 39 32 71 -45z m145 -9
c8 -31 -10 -31 -21 0 -8 24 -8 29 3 25 7 -3 15 -14 18 -25z m292 1 c10 -11 16
-20 13 -20 -3 0 -13 9 -23 20 -10 11 -16 20 -13 20 3 0 13 -9 23 -20z m-105
-65 c19 -19 32 -35 29 -35 -3 0 -20 16 -39 35 -19 19 -32 35 -29 35 3 0 20
-16 39 -35z m28 -362 c-10 -2 -26 -2 -35 0 -10 3 -2 5 17 5 19 0 27 -2 18 -5z
m369 1 c-3 -3 -12 -4 -19 -1 -8 3 -5 6 6 6 11 1 17 -2 13 -5z m-245 -100 c2
-51 7 -70 21 -78 34 -21 52 4 55 78 4 86 22 86 22 -1 0 -74 -16 -103 -57 -103
-53 0 -63 15 -63 95 0 93 18 100 22 9z m256 48 c3 -9 -3 -11 -23 -6 -32 8 -75
-27 -75 -63 0 -48 67 -82 99 -50 10 10 12 8 9 -8 -2 -15 -12 -21 -40 -23 -91
-8 -123 112 -43 157 25 14 67 10 73 -7z m-349 -69 c30 -74 33 -107 7 -70 -17
22 -72 23 -84 1 -5 -9 -14 -15 -20 -13 -10 4 47 159 59 159 4 0 21 -35 38 -77z
m298 -139 c-3 -3 -12 -4 -19 -1 -8 3 -5 6 6 6 11 1 17 -2 13 -5z"/>
<path d="M1590 3175 c0 -27 6 -30 29 -16 12 8 12 12 2 25 -19 23 -31 20 -31
-9z"/>
<path d="M2431 3213 c-21 -41 -31 -97 -18 -105 34 -22 77 15 77 65 0 51 -39
77 -59 40z"/>
<path d="M1205 3046 c-18 -13 -18 -17 -5 -40 15 -29 37 -31 54 -4 8 14 6 22
-10 38 -17 18 -22 19 -39 6z"/>
<path d="M1010 2788 c0 -22 17 -41 29 -34 17 11 13 24 -9 36 -15 8 -20 8 -20
-2z"/>
<path d="M2007 1461 c-6 -22 0 -31 20 -31 9 0 13 8 11 22 -4 28 -24 34 -31 9z"/>
<path d="M610 2333 c0 -10 337 -9 346 0 4 4 -72 7 -169 7 -98 0 -177 -3 -177
-7z"/>
<path d="M3034 2332 c5 -8 345 -6 354 2 3 3 -77 6 -177 6 -100 0 -180 -3 -177
-8z"/>
<path d="M595 2270 c-4 -7 53 -10 164 -10 107 0 171 4 171 10 0 6 -61 10 -164
10 -99 0 -167 -4 -171 -10z"/>
<path d="M3050 2270 c0 -6 65 -10 175 -10 110 0 175 4 175 10 0 6 -65 10 -175
10 -110 0 -175 -4 -175 -10z"/>
<path d="M580 2180 l0 -30 167 2 168 3 2 28 2 27 -170 0 -169 0 0 -30z m163 3
c-13 -2 -33 -2 -45 0 -13 2 -3 4 22 4 25 0 35 -2 23 -4z"/>
<path d="M3060 2201 c0 -5 6 -12 13 -14 9 -4 8 -6 -2 -6 -11 -1 -11 -4 -1 -16
10 -12 43 -15 182 -15 l169 0 -4 28 -4 27 -176 3 c-106 1 -177 -1 -177 -7z
m83 -18 c-7 -2 -21 -2 -30 0 -10 3 -4 5 12 5 17 0 24 -2 18 -5z"/>
<path d="M2328 2000 c-20 -49 -33 -92 -28 -95 12 -7 126 -4 138 4 9 6 -56 181
-67 181 -3 0 -23 -40 -43 -90z"/>
<path d="M580 1820 c0 -11 5 -20 11 -20 5 0 7 -4 4 -10 -4 -7 53 -10 164 -10
l169 0 -7 28 -7 27 -167 3 c-162 2 -167 2 -167 -18z"/>
<path d="M3075 1830 c-3 -5 -8 -19 -10 -30 -4 -19 1 -20 170 -20 148 0 174 2
179 16 17 43 14 44 -163 44 -102 0 -172 -4 -176 -10z m253 -37 c-10 -2 -26 -2
-35 0 -10 3 -2 5 17 5 19 0 27 -2 18 -5z"/>
<path d="M683 1713 c48 -2 126 -2 175 0 48 1 8 3 -88 3 -96 0 -136 -2 -87 -3z"/>
<path d="M3128 1713 c50 -2 134 -2 185 0 50 1 9 3 -93 3 -102 0 -143 -2 -92
-3z"/>
<path d="M692 1653 c48 -2 129 -2 180 0 51 1 12 3 -87 3 -99 0 -141 -2 -93 -3z"/>
<path d="M3118 1653 c50 -2 134 -2 185 0 50 1 9 3 -93 3 -102 0 -143 -2 -92
-3z"/>
<path d="M620 1621 c0 -39 72 -218 126 -315 76 -135 144 -223 261 -337 129
-125 297 -234 468 -304 22 -9 93 -32 158 -51 l119 -34 234 0 c196 0 249 3 322
20 414 92 764 357 959 727 52 100 126 296 116 307 -4 3 -84 6 -179 6 l-173 0
-60 -122 c-195 -399 -592 -635 -1031 -614 -279 13 -509 117 -721 326 -99 98
-165 194 -218 317 l-38 88 -172 3 c-165 2 -171 2 -171 -17z m2276 -528 c75
-66 73 -70 -40 -80 -42 -3 -76 -8 -76 -11 0 -4 14 -21 31 -38 21 -21 29 -38
25 -49 -3 -9 -10 -15 -15 -13 -10 4 -111 123 -111 132 0 3 35 6 78 6 43 0 82
3 86 7 3 4 -10 23 -30 44 -20 20 -33 42 -30 48 11 16 12 15 82 -46z m-1640
-98 c-20 -93 -38 -117 -44 -59 -5 40 -50 87 -79 81 -19 -4 -54 18 -42 26 5 3
160 44 175 46 7 1 3 -33 -10 -94z m169 -25 c23 -26 12 -37 -20 -20 -14 7 -27
11 -30 9 -2 -3 3 -28 12 -56 14 -44 14 -54 3 -68 -23 -28 -87 -7 -111 36 -15
30 8 32 34 3 15 -16 31 -24 40 -21 14 5 14 11 0 55 -9 27 -13 57 -10 66 9 23
60 20 82 -4z m1289 -21 c73 -57 -17 -184 -119 -165 -59 11 -79 59 -50 117 33
63 118 88 169 48z m-1161 -57 c22 -24 12 -34 -19 -20 -35 16 -38 6 -13 -45 23
-46 21 -73 -6 -83 -23 -9 -62 4 -85 29 -19 19 -19 22 -5 25 9 2 25 -4 35 -13
11 -10 26 -15 35 -11 14 5 13 10 -5 45 -20 41 -25 72 -13 84 13 14 60 7 76
-11z m953 -89 c27 -59 32 -78 22 -84 -7 -5 -16 -5 -20 -1 -13 13 -66 150 -60
156 14 15 26 1 58 -71z m-96 48 c0 -5 -10 -15 -22 -23 l-21 -14 21 -64 c27
-77 27 -80 4 -80 -14 0 -22 17 -37 70 -19 69 -20 70 -47 65 -51 -12 -29 12 30
32 70 25 72 25 72 14z m-670 -26 c36 -19 50 -43 50 -88 0 -59 -63 -91 -135
-67 -39 13 -75 59 -75 95 1 61 92 95 160 60z m499 -107 c28 -37 51 -70 51 -73
0 -12 -38 -4 -43 9 -8 21 -78 9 -96 -15 -7 -11 -21 -19 -31 -19 -16 0 -14 9
16 78 19 42 34 84 34 92 0 17 4 13 69 -72z m-259 56 c0 -12 -6 -15 -27 -10
-37 10 -82 -11 -90 -42 -12 -50 44 -92 98 -73 26 9 30 8 27 -7 -2 -13 -15 -18
-49 -20 -93 -6 -146 85 -83 143 33 31 124 37 124 9z m82 -66 c3 -84 -1 -106
-21 -94 -7 4 -11 42 -11 92 0 66 3 84 14 84 11 0 15 -19 18 -82z"/>
<path d="M1192 1032 c-10 -7 -8 -12 7 -26 17 -15 19 -15 25 -1 13 34 -1 46
-32 27z"/>
<path d="M2602 924 c-55 -38 -44 -114 17 -114 38 0 91 44 91 75 0 50 -61 72
-108 39z"/>
<path d="M1653 809 c-31 -11 -45 -42 -33 -73 25 -67 140 -58 140 10 0 45 -61
80 -107 63z"/>
<path d="M2176 714 c-10 -26 -7 -34 14 -34 23 0 27 22 6 39 -11 9 -15 8 -20
-5z"/>
</g>
</svg>
